<svg width="34" height="35" viewBox="0 0 34 35" fill="none" xmlns="http://www.w3.org/2000/svg">
<path d="M32.0494 28.5937L31.1402 27.6372C31.0979 23.2662 29.9994 18.9217 27.9567 15.0558L27.4942 14.1805L29.3017 11.3794C29.6295 10.8712 29.6534 10.2258 29.3642 9.69489C29.0749 9.16401 28.5195 8.83415 27.9149 8.83415H27.0085L20.7121 2.5378C19.7205 1.54619 18.4021 1 16.9998 1C15.5972 1 14.2788 1.54619 13.2872 2.5378L6.9908 8.83415H6.12828C5.51678 8.83415 4.9586 9.16962 4.67135 9.70918C4.38409 10.249 4.41777 10.8995 4.75936 11.4067L6.55916 14.0782L6.04256 15.0558C3.9999 18.9214 2.9014 23.2659 2.85905 27.6372L1.95009 28.5934C1.32559 29.2503 0.988077 30.1113 1.00032 31.0177C1.01257 31.9241 1.37329 32.7772 2.01591 33.4198L2.05392 33.4578C2.85344 34.2576 3.99173 34.5966 5.09865 34.3655L6.5663 34.0589C7.20382 33.9257 7.85562 33.893 8.50309 33.9622L8.97275 34.0122C11.6363 34.2959 14.3175 34.4377 16.9998 34.4377C19.6812 34.4377 22.3637 34.2959 25.0265 34.0122L25.4962 33.9622C26.1437 33.893 26.7955 33.9257 27.433 34.0589L28.8409 34.353C29.9848 34.592 31.1619 34.2413 31.9887 33.4145C32.6293 32.7739 32.9882 31.9223 32.9997 31.0164C33.0112 30.1105 32.6737 29.25 32.0494 28.5937ZM14.2109 3.4613C14.9558 2.71638 15.9462 2.30616 16.9998 2.30616C18.0531 2.30616 19.0437 2.71638 19.7886 3.4613L25.1612 8.83415H8.83805L14.2109 3.4613ZM31.0652 32.491C30.5512 33.005 29.8198 33.2229 29.108 33.0744L27.7003 32.7803C26.9291 32.6193 26.1411 32.58 25.3579 32.6634L24.8883 32.7134C19.6539 33.2711 14.3456 33.2708 9.11127 32.7134L8.64161 32.6634C7.85843 32.5797 7.07014 32.6193 6.2992 32.7803L4.83156 33.0869C4.1573 33.2277 3.46442 33.0211 2.97767 32.5346L2.93966 32.4963C2.10648 31.6634 2.0876 30.3442 2.89681 29.4934L3.98434 28.3495C4.0999 28.2281 4.16419 28.0671 4.16419 27.8995C4.16419 23.6519 5.2132 19.4217 7.19744 15.666L7.56454 14.9713H14.3885C14.7492 14.9713 15.0415 14.679 15.0415 14.3182C15.0415 13.9575 14.7492 13.6652 14.3885 13.6652H7.85562L5.84281 10.6768C5.73847 10.5222 5.7951 10.3778 5.82444 10.323C5.85352 10.2681 5.94179 10.1403 6.12828 10.1403H27.9149C28.0996 10.1403 28.1878 10.2658 28.2172 10.3199C28.2468 10.374 28.3042 10.5161 28.2042 10.6712L26.2725 13.6652H19.6113C19.2506 13.6652 18.9582 13.9575 18.9582 14.3182C18.9582 14.679 19.2506 14.9713 19.6113 14.9713H23.2015V17.204C23.2015 17.5648 23.4938 17.8571 23.8546 17.8571C24.2153 17.8571 24.5076 17.5648 24.5076 17.204V14.9713H25.975V21.2922C25.975 21.6529 26.2676 21.9452 26.6284 21.9452C26.9888 21.9452 27.2814 21.6529 27.2814 21.2922V16.6224C28.9544 20.1327 29.8353 24.0088 29.8353 27.8995C29.8353 28.0671 29.8996 28.2283 30.0152 28.3498L31.103 29.4937C31.9117 30.3445 31.8951 31.6608 31.0652 32.491Z" fill="#28223F" stroke="#28223F" stroke-width="0.7"/>
<path d="M15.8017 4.37438C15.5465 4.11927 15.133 4.11927 14.8779 4.37438C14.6231 4.62949 14.6231 5.04302 14.8779 5.29813L15.1034 5.52364C15.231 5.65094 15.3981 5.71472 15.5652 5.71472C15.7325 5.71472 15.8996 5.65094 16.0272 5.52339C16.282 5.26853 16.282 4.855 16.0269 4.59989L15.8017 4.37438Z" fill="#28223F" stroke="#28223F" stroke-width="0.7"/>
<path d="M13.8498 6.44324H13.613C13.2526 6.44324 12.96 6.73559 12.96 7.09632C12.96 7.45704 13.2526 7.7494 13.613 7.7494H13.8498C14.2103 7.7494 14.5029 7.45704 14.5029 7.09632C14.5029 6.73559 14.2105 6.44324 13.8498 6.44324Z" fill="#28223F" stroke="#28223F" stroke-width="0.7"/>
<path d="M22.247 28.7097C22.7718 28.089 23.5894 26.888 23.5124 25.4976C23.4144 23.7412 21.8475 22.4263 21.4355 22.1108C21.3796 22.0603 21.3143 22.0192 21.2421 21.9901C21.038 21.9077 20.8082 21.9347 20.6296 22.0569C20.249 20.6388 19.0191 19.6102 18.6609 19.3365C18.6051 19.2859 18.5398 19.2446 18.4673 19.2155C18.2637 19.1339 18.0349 19.1607 17.8563 19.2821C17.4752 17.865 16.2466 16.8377 15.8887 16.5639C15.8325 16.5134 15.7672 16.4723 15.6948 16.443C15.4642 16.3504 15.2009 16.3968 15.0159 16.5627C14.9397 16.6308 13.1506 18.2561 13.2605 20.225C13.2697 20.3908 13.2929 20.5528 13.3271 20.7102C13.1695 20.6763 13.0077 20.6531 12.8416 20.6436C10.8737 20.5332 9.24765 22.3228 9.17928 22.399C9.01346 22.5843 8.9678 22.8475 9.0604 23.0781C9.08693 23.1445 9.12393 23.2047 9.16857 23.2575C9.4196 23.5945 10.4426 24.8557 11.8977 25.2412C11.7773 25.4193 11.7513 25.6474 11.8327 25.8504C11.8595 25.9167 11.8962 25.977 11.9411 26.0298C12.1921 26.367 13.2161 27.6298 14.6726 28.0143C14.5491 28.1962 14.5243 28.4301 14.6116 28.6362C14.6399 28.7025 14.6782 28.7627 14.7246 28.8148C15.0351 29.2217 16.3514 30.7972 18.1145 30.8955C18.1762 30.899 18.2372 30.9006 18.2982 30.9006C19.6069 30.9006 20.7291 30.1337 21.3227 29.6329L22.6021 30.9123C22.7297 31.0399 22.8968 31.1034 23.0639 31.1034C23.231 31.1034 23.3983 31.0399 23.5256 30.9123C23.7807 30.6572 23.7807 30.2437 23.5256 29.9886L22.247 28.7097ZM21.0485 23.4919C21.5378 23.9611 22.1621 24.7415 22.2082 25.5703C22.257 26.4476 21.7123 27.2892 21.3227 27.7732C20.7857 27.2834 20.1561 26.5063 20.1112 25.6989C20.0623 24.8216 20.6406 23.9746 21.0485 23.4919ZM18.2744 20.7181C18.7637 21.187 19.388 21.9674 19.4342 22.7963C19.4829 23.6736 18.938 24.5157 18.5487 24.9994C18.0114 24.5093 17.3821 23.7325 17.3372 22.9248C17.3173 22.5707 17.4007 22.222 17.5328 21.8998C17.5706 21.8222 17.6066 21.7424 17.641 21.6608C17.8298 21.2845 18.0729 20.9567 18.2744 20.7181ZM15.5022 17.9456C15.9915 18.4145 16.6155 19.1949 16.6619 20.0237C16.7104 20.901 16.166 21.7427 15.7764 22.2266C15.2392 21.7365 14.6098 20.9595 14.5646 20.1523C14.5159 19.275 15.0943 18.4283 15.5022 17.9456ZM10.5633 22.8863C11.0477 22.4789 11.8967 21.8995 12.7692 21.948C13.5243 21.9901 14.2524 22.5432 14.7442 23.0539C14.746 23.0557 14.7473 23.0572 14.7488 23.059L14.7547 23.0646C14.7851 23.0965 14.8149 23.1284 14.8435 23.1598C14.36 23.5491 13.5167 24.0932 12.6406 24.045C11.8123 23.9988 11.0324 23.3756 10.5633 22.8863ZM13.3358 25.6588C13.582 25.4517 13.9223 25.2007 14.3118 25.0096C14.3682 24.9853 14.4233 24.9598 14.4777 24.9341C14.8113 24.7915 15.1741 24.6999 15.5415 24.7203C16.2285 24.7586 16.8925 25.2198 17.3772 25.6872L17.527 25.8372C17.5576 25.869 17.5874 25.9007 17.616 25.9321C17.1323 26.3214 16.2915 26.866 15.4131 26.8173C14.5848 26.7711 13.8049 26.1479 13.3358 25.6588ZM20.3901 28.7061C19.9064 29.0954 19.065 29.6398 18.1872 29.5916C17.3581 29.5452 16.5777 28.9212 16.1088 28.4319C16.3573 28.2219 16.7027 27.9673 17.0986 27.7757C17.1476 27.7546 17.1958 27.7324 17.2435 27.7099C17.5788 27.5663 17.9443 27.4739 18.3155 27.4943C19.0007 27.5326 19.6627 27.991 20.1472 28.4571L20.3033 28.6135C20.3332 28.6446 20.3623 28.6755 20.3901 28.7061Z" fill="#28223F" stroke="#28223F" stroke-width="0.7"/>
<path d="M17.0217 14.9716C17.1934 14.9716 17.362 14.9017 17.4835 14.7803C17.6049 14.6583 17.6748 14.4905 17.6748 14.318C17.6748 14.1461 17.6049 13.9784 17.4835 13.8562C17.362 13.7348 17.1934 13.6649 17.0217 13.6649C16.85 13.6649 16.6814 13.7348 16.56 13.8562C16.4386 13.9777 16.3687 14.1461 16.3687 14.318C16.3687 14.4905 16.4383 14.6588 16.56 14.7803C16.6814 14.9017 16.85 14.9716 17.0217 14.9716Z" fill="#28223F" stroke="#28223F" stroke-width="0.7"/>
</svg>
