<svg width="20" height="20" viewBox="0 0 20 20" fill="none" xmlns="http://www.w3.org/2000/svg">
<path fill-rule="evenodd" clip-rule="evenodd" d="M8.96447 3.13112C9.90215 2.19344 11.1739 1.66666 12.5 1.66666H15C15.4602 1.66666 15.8333 2.03975 15.8333 2.49999V5.83332C15.8333 6.29356 15.4602 6.66666 15 6.66666H12.5V7.49999H15C15.2566 7.49999 15.4989 7.61822 15.6568 7.82048C15.8148 8.02274 15.8707 8.28649 15.8085 8.53544L14.9751 11.8688C14.8824 12.2397 14.5491 12.5 14.1667 12.5H12.5V17.5C12.5 17.9602 12.1269 18.3333 11.6667 18.3333H8.33333C7.8731 18.3333 7.5 17.9602 7.5 17.5V12.5H5.83333C5.3731 12.5 5 12.1269 5 11.6667V8.33332C5 7.87309 5.3731 7.49999 5.83333 7.49999H7.5V6.66666C7.5 5.34057 8.02678 4.0688 8.96447 3.13112ZM12.5 3.33332C11.6159 3.33332 10.7681 3.68451 10.143 4.30963C9.51786 4.93476 9.16667 5.7826 9.16667 6.66666V8.33332C9.16667 8.79356 8.79357 9.16666 8.33333 9.16666H6.66667V10.8333H8.33333C8.79357 10.8333 9.16667 11.2064 9.16667 11.6667V16.6667H10.8333V11.6667C10.8333 11.2064 11.2064 10.8333 11.6667 10.8333H13.516L13.9327 9.16666H11.6667C11.2064 9.16666 10.8333 8.79356 10.8333 8.33332V6.66666C10.8333 6.22463 11.0089 5.80071 11.3215 5.48815C11.634 5.17559 12.058 4.99999 12.5 4.99999H14.1667V3.33332H12.5Z" fill="white"/>
</svg>
