<svg width="20" height="20" viewBox="0 0 20 20" fill="none" xmlns="http://www.w3.org/2000/svg">
<path d="M14.6571 0.105713H5.25757C2.38823 0.105713 0.112549 2.48034 0.112549 5.44862V14.5514C0.112549 17.4207 2.38823 19.7953 5.35652 19.8943H14.7561C17.6254 19.8943 20 17.5196 20 14.5514V5.44862C19.9011 2.48034 17.6254 0.105713 14.6571 0.105713ZM18.1201 14.4524C18.1201 16.4313 16.5371 18.1133 14.4593 18.1133H5.45546C3.4766 18.1133 1.79458 16.4313 1.89352 14.4524V5.54757C1.89352 3.56871 3.4766 1.88668 5.45546 1.88668H14.4593C16.4381 1.88668 18.1201 3.56871 18.1201 5.54757V14.4524Z" fill="white"/>
<path d="M10.0068 4.95391C7.23638 4.85497 4.86175 7.13066 4.86175 9.90105C4.76281 12.6715 7.03849 15.0461 9.80889 15.0461C12.5793 15.0461 14.9539 12.8693 14.9539 10.0989V10C15.0529 7.2296 12.7772 4.95391 10.0068 4.95391ZM10.0068 13.2651C8.22581 13.2651 6.74166 11.8799 6.64272 10.0989C6.64272 8.31797 8.02792 6.83383 9.80889 6.73488C11.5899 6.63594 13.074 8.12008 13.1729 9.90105V10C13.2719 11.781 11.7877 13.2651 10.0068 13.2651Z" fill="white"/>
<path d="M15.251 3.46979C15.8446 3.46979 16.3393 3.9645 16.3393 4.6571C16.3393 5.3497 15.8446 5.84441 15.251 5.84441C14.6573 5.84441 14.1626 5.3497 14.1626 4.6571C14.1626 3.9645 14.6573 3.46979 15.251 3.46979Z" fill="white"/>
</svg>
