<svg width="35" height="35" viewBox="0 0 35 35" fill="none" xmlns="http://www.w3.org/2000/svg">
<path d="M33.6994 4.15075C33.5104 4.01013 33.2731 3.96401 33.0417 4.02841L17.1935 8.55596C17.0043 8.19322 16.7614 7.91831 16.5552 7.6912C16.5433 7.67819 16.5356 7.66737 16.524 7.65464L33.4401 3.22419C33.7698 3.13701 33.9997 2.83819 33.9997 2.4969L33.9982 1.74836C33.9982 1.51324 33.8869 1.29204 33.6994 1.15072C33.5104 1.00939 33.2731 0.964676 33.0417 1.02838L1.54378 10.0269C1.14975 10.1404 0.918287 10.5498 1.02671 10.946C1.11755 11.2793 1.41925 11.4983 1.75035 11.4983C1.81335 11.4983 1.87635 11.4902 1.94075 11.4741L6.96617 10.1579C6.89635 10.4846 6.71347 10.6933 6.44509 10.9885C6.24801 11.2056 6.01514 11.4635 5.82966 11.8024L1.54378 13.0268C1.14975 13.1403 0.918287 13.5497 1.02671 13.9459C1.11755 14.2792 1.41925 14.4982 1.75035 14.4982C1.81335 14.4982 1.87635 14.4901 1.94075 14.474L5.54778 13.5293C5.66105 14.3891 6.09825 14.9161 6.44509 15.2979C6.79081 15.6795 7.00027 15.9095 7.00027 16.4456C7.00027 16.9825 6.79081 17.2125 6.44509 17.594C6.14697 17.9222 5.76652 18.342 5.5937 18.9995H4.75024C4.33569 18.9995 4.00024 19.335 4.00024 19.7496V20.4996C4.00024 25.886 7.179 30.5323 11.7526 32.6966C11.6 32.8338 11.5001 33.0277 11.5001 33.2494C11.5001 33.6639 11.8356 33.9994 12.2501 33.9994H22.7499C23.1644 33.9994 23.4999 33.6639 23.4999 33.2494C23.4999 33.0278 23.3999 32.8339 23.2474 32.6966C27.8211 30.5324 30.9998 25.886 30.9998 20.4996V19.7496C30.9998 19.335 30.6643 18.9995 30.2498 18.9995H16.2303C16.3185 18.8724 16.4231 18.7477 16.5552 18.6019C16.9537 18.1631 17.5 17.5618 17.5 16.4456C17.5 15.3302 16.9537 14.7289 16.5552 14.2902C16.2095 13.9086 16 13.6786 16 13.1425C16 12.6078 16.2095 12.3779 16.5552 11.9978C16.877 11.6435 17.2807 11.168 17.4296 10.4174L33.4401 6.22416C33.7698 6.13697 33.9997 5.83815 33.9997 5.49686L33.9982 4.74833C33.9982 4.51328 33.8869 4.29208 33.6994 4.15075ZM14.9517 8.06645C15.1124 8.31198 15.2857 8.52509 15.4448 8.70045C15.5383 8.80324 15.6196 8.89521 15.6918 8.985L14.4384 9.34302C14.3652 8.91925 14.22 8.58028 14.0376 8.30586L14.9517 8.06645ZM13.5552 11.9978C13.7295 11.8059 13.9275 11.5726 14.1002 11.2894L15.5035 10.9219C15.4828 10.9448 15.4666 10.9645 15.4448 10.9885C15.0463 11.4273 14.4999 12.0278 14.4999 13.1425C14.4999 14.258 15.0463 14.8593 15.4448 15.2979C15.7905 15.6795 16 15.9095 16 16.4456C16 16.9825 15.7905 17.2125 15.4448 17.594C15.1467 17.9222 14.7662 18.342 14.5934 18.9995H13.2303C13.3185 18.8724 13.4231 18.7477 13.5552 18.6019C13.9536 18.1631 14.5 17.5618 14.5 16.4456C14.5 15.3302 13.9536 14.7289 13.5552 14.2902C13.2094 13.9086 13 13.6786 13 13.1425C13.0001 12.6078 13.2096 12.3779 13.5552 11.9978ZM12.4617 8.71859C12.7759 9.0641 12.9669 9.29858 12.9906 9.75666L11.4571 10.1947C11.4711 10.0773 11.5001 9.97547 11.5001 9.84441C11.5001 9.51535 11.4441 9.24719 11.3701 9.0044L12.4617 8.71859ZM11.7906 11.8943C11.6242 12.2257 11.5001 12.6243 11.5001 13.1425C11.5001 14.258 12.0465 14.8593 12.445 15.2979C12.7907 15.6795 13.0001 15.9095 13.0001 16.4456C13.0001 16.9825 12.7907 17.2125 12.445 17.594C12.1468 17.9222 11.7664 18.342 11.5936 18.9995H10.2304C10.3187 18.8724 10.4232 18.7477 10.5553 18.6019C10.9538 18.1631 11.5002 17.5618 11.5002 16.4456C11.5002 15.3302 10.9538 14.7289 10.5553 14.2902C10.2096 13.9086 10.0002 13.6786 10.0002 13.1425C10.0002 12.7525 10.1139 12.5247 10.3083 12.2824L11.7906 11.8943ZM8.4877 9.7594L9.92219 9.38366C9.96944 9.51409 10.0001 9.65815 10.0001 9.84441C10.0001 10.2306 9.8876 10.4578 9.69614 10.6978L8.19605 11.1263C8.3707 10.7895 8.50008 10.3786 8.50008 9.84448C8.50015 9.81361 8.48855 9.78971 8.4877 9.7594ZM8.54922 12.7433C8.5313 12.875 8.50015 12.9932 8.50015 13.1425C8.50015 14.258 9.04654 14.8593 9.44499 15.2979C9.79071 15.6795 10.0002 15.9095 10.0002 16.4456C10.0002 16.9825 9.79071 17.2125 9.44499 17.594C9.14687 17.9222 8.76642 18.342 8.59359 18.9995H7.23047C7.31871 18.8724 7.42326 18.7477 7.55538 18.6019C7.95383 18.1631 8.50022 17.5618 8.50022 16.4456C8.50022 15.3302 7.95383 14.7289 7.55538 14.2902C7.2112 13.9102 7.00266 13.6797 7.00083 13.1487L8.54922 12.7433ZM29.4998 20.4996C29.4998 27.1161 24.1165 32.4994 17.5 32.4994C10.8834 32.4994 5.50025 27.1161 5.50025 20.4996H29.4998Z" fill="#28223F" stroke="#28223F" stroke-width="0.6"/>
<path d="M8.02028 22.9232C8.56667 25.2259 9.89963 27.303 11.7746 28.7714C11.9123 28.8791 12.0749 28.9311 12.2375 28.9311C12.4602 28.9311 12.6799 28.8322 12.8278 28.6433C13.0827 28.3174 13.0256 27.8464 12.7003 27.5908C11.092 26.3303 9.94793 24.5498 9.47917 22.5774C9.38397 22.1739 8.98404 21.9241 8.57687 22.0208C8.17406 22.1161 7.92508 22.5204 8.02028 22.9232Z" fill="#28223F" stroke="#28223F" stroke-width="0.6"/>
</svg>
