<svg width="41" height="34" viewBox="0 0 41 34" fill="none" xmlns="http://www.w3.org/2000/svg">
<path d="M19.0039 26.2866C18.6681 26.2866 18.3956 26.559 18.3956 26.8948V27.9044C18.3956 28.2405 18.6681 28.5126 19.0039 28.5126C19.34 28.5126 19.6121 28.2405 19.6121 27.9044V26.8948C19.6121 26.559 19.34 26.2866 19.0039 26.2866Z" fill="#28223F"/>
<path d="M11.3142 26.2866C10.9784 26.2866 10.7059 26.559 10.7059 26.8948V27.9044C10.7059 28.2405 10.9784 28.5126 11.3142 28.5126C11.6503 28.5126 11.9224 28.2405 11.9224 27.9044V26.8948C11.9227 26.559 11.6503 26.2866 11.3142 26.2866Z" fill="#28223F"/>
<path d="M16.4169 28.2448C16.314 28.177 15.8587 28.0018 15.5746 28.419C15.4381 28.6192 15.2397 28.6433 15.159 28.6433C15.0785 28.6433 14.8764 28.6215 14.7437 28.419C14.559 28.1384 14.182 28.0601 13.9013 28.2448C13.6203 28.4292 13.5424 28.8062 13.7268 29.0868C14.0448 29.5709 14.5802 29.8598 15.159 29.8598C15.7381 29.8598 16.2734 29.5709 16.5912 29.0868C16.7759 28.8062 16.6976 28.4292 16.4169 28.2448Z" fill="#28223F"/>
<path d="M12.3618 21.8833C12.6583 22.0405 13.0267 21.9277 13.1842 21.6309C13.3416 21.334 13.2285 20.9659 12.9317 20.8085C12.4825 20.5706 12.2145 20.2734 12.2145 20.014C12.2145 19.7542 12.4825 19.4574 12.9317 19.2191C13.5079 18.9134 14.3198 18.7383 15.1587 18.7383C15.9979 18.7383 16.8095 18.9134 17.386 19.2191C17.8349 19.4574 18.1032 19.7542 18.1032 20.014C18.1032 20.2734 17.8349 20.5706 17.386 20.8085C16.8095 21.1142 15.9979 21.2897 15.1587 21.2897C14.8229 21.2897 14.5505 21.5618 14.5505 21.8979C14.5505 22.2337 14.8229 22.5061 15.1587 22.5061C17.5308 22.5061 19.3197 21.4344 19.3197 20.014C19.3197 18.5932 17.5308 17.5218 15.1587 17.5218C12.7866 17.5218 10.9977 18.5932 10.9977 20.014C10.9977 20.753 11.482 21.4167 12.3618 21.8833Z" fill="#28223F"/>
<path d="M37.2995 12.9518C34.673 11.1611 31.6062 10.2144 28.4303 10.2144C27.6189 10.2144 26.815 10.2766 26.0236 10.3984L29.2939 7.86902C30.1299 7.22258 30.3028 6.04206 29.6878 5.18182C29.0726 4.32127 27.9026 4.10717 27.024 4.69404L25.0968 5.9822L26.4272 4.08063C27.0337 3.21419 26.8488 2.03544 26.0063 1.39756C25.1641 0.759375 23.9833 0.904175 23.3186 1.72667L13.7568 13.5602L11.2832 15.2131C9.66464 15.6832 8.23513 16.9584 7.79801 17.5423L2.32659 21.1986C1.64902 21.6512 1.19545 22.3431 1.04935 23.1464C0.903253 23.9501 1.08404 24.7578 1.55848 25.4214C2.03293 26.0852 2.78957 26.639 3.96717 26.6665C3.94365 27.6125 4.37048 28.5217 5.15064 29.1139C6.30736 29.9921 7.43762 29.6857 7.68308 29.6223C8.1246 30.2691 8.77953 30.8568 9.62613 31.3537C11.2111 32.2839 13.3068 32.7961 15.5267 32.7961C17.7467 32.7961 19.8423 32.2839 21.4276 31.3537C22.4856 30.7329 23.244 29.97 23.6608 29.1272C23.9689 29.2369 25.2208 29.6645 26.3273 28.7394C26.4437 28.642 26.6077 28.6497 26.73 28.7394C27.2265 29.103 27.8144 29.2953 28.4303 29.2953C29.0461 29.2953 29.634 29.103 30.1302 28.7394C30.2528 28.6497 30.4107 28.65 30.5332 28.7394C31.0294 29.103 31.6173 29.2953 32.2335 29.2953C33.3717 29.2953 34.4067 28.6214 34.8709 27.5783C34.9247 27.4571 35.0384 27.3787 35.1675 27.3739C35.9908 27.343 36.7634 26.9602 37.2872 26.3232C37.8066 25.6915 38.0356 24.8643 37.9151 24.0536C37.8963 23.9265 37.9495 23.8017 38.0574 23.72C38.7796 23.1721 39.1979 22.3375 39.2044 21.4304C39.2082 20.883 39.0518 20.3501 38.7579 19.888C40.1994 17.5727 39.5692 14.4991 37.2995 12.9518ZM28.6243 11.3486C29.1225 12.4758 29.3259 13.7182 29.2116 14.9639C29.1713 15.4021 28.7833 15.7254 28.3465 15.6856C28.3385 15.6847 27.5675 15.5788 27.6278 14.81C27.7227 13.6038 27.454 12.4342 26.867 11.4303C27.3838 11.3752 28.5596 11.3478 28.6243 11.3486ZM25.6386 11.6146C26.2853 12.4976 26.5913 13.5879 26.5025 14.7212C26.3984 16.0436 27.1953 16.8212 28.4209 16.8212C29.403 16.8212 30.244 16.0678 30.3357 15.0677C30.4503 13.8209 30.2884 12.5757 29.8683 11.4176C30.6973 11.4987 31.5139 11.6503 32.3111 11.8697C32.6747 12.8326 32.7012 13.9052 32.3805 14.9197C31.9807 16.1839 32.8481 17.1244 33.6033 17.3527C34.9661 17.7652 35.7683 16.9377 36.0358 16.1285C36.0978 15.9412 36.1537 15.7504 36.2022 15.5611C36.2795 15.2582 36.0975 14.9495 35.7956 14.8719C35.4935 14.7943 35.186 14.9769 35.1087 15.2798C35.0666 15.444 35.0181 15.6095 34.9646 15.772C34.8265 16.1896 34.375 16.4166 33.9587 16.278C33.9514 16.2757 33.2241 15.997 33.4566 15.2621C33.7653 14.2856 33.8129 13.2635 33.6074 12.2932C34.6777 12.6993 35.7033 13.2325 36.6652 13.8881C38.4751 15.1223 38.9469 17.6033 37.7167 19.4194C36.9756 20.5135 34.5175 21.9975 32.1956 20.4693C29.8677 18.9375 26.909 18.9396 24.6576 20.4746C24.4586 20.6102 24.2499 20.7261 24.0333 20.8226V19.755C24.0333 19.1041 23.8475 18.4757 23.4921 17.8915C24.5071 17.67 25.1691 16.6729 24.9733 15.6437C24.7435 14.4343 24.2558 13.2983 23.55 12.3115C23.5497 12.3115 25.0312 11.7326 25.6386 11.6146ZM22.3903 12.6524C23.1323 13.5761 23.6399 14.6752 23.8645 15.856C23.9465 16.2881 23.6629 16.7068 23.2322 16.7894C23.2243 16.7909 22.4541 16.9032 22.3001 16.1477C22.0914 15.1235 21.6137 14.1771 20.9329 13.4171C21.4059 13.134 21.8927 12.8789 22.3903 12.6524ZM19.9766 14.0491C20.4393 14.5269 20.7965 15.1093 21.0208 15.7487C20.4346 15.4464 19.7909 15.196 19.1036 15.0031C19.3393 14.6407 19.6333 14.3187 19.9766 14.0491ZM24.1955 2.43976C24.4751 2.09383 24.9719 2.03279 25.3261 2.30115C25.6806 2.56952 25.7585 3.06526 25.5033 3.42977L22.5061 7.71331L16.9157 11.4492L24.1955 2.43976ZM27.6498 5.63656C28.0193 5.38973 28.5117 5.47967 28.7704 5.84182C29.0291 6.20367 28.9564 6.7003 28.6046 6.9722L23.3066 11.0699C21.9903 11.5235 20.7318 12.1534 19.561 12.9515C18.8825 13.4142 18.3325 14.0252 17.9469 14.7389C16.4389 14.4753 14.6748 14.5481 14.2583 14.5855L27.6498 5.63656ZM10.1958 16.9483C11.6109 16.1182 13.504 15.6611 15.5267 15.6611C17.5494 15.6611 19.4425 16.1182 20.8576 16.9483C22.1775 17.7228 22.9042 18.7196 22.9042 19.7547C22.9042 20.7901 22.1772 21.7869 20.8576 22.5613C19.4425 23.3915 17.5494 23.8486 15.5267 23.8486C13.504 23.8486 11.6109 23.3915 10.1958 22.5613C8.87625 21.7869 8.14929 20.7901 8.14929 19.7547C8.14929 18.7196 8.87625 17.7228 10.1958 16.9483ZM2.47563 24.7613C1.69047 23.5516 2.53207 22.4218 2.95243 22.1411L7.03843 19.4102C7.02696 19.5244 7.0205 23.6655 7.0205 23.6655L5.10272 25.1489C4.70265 25.4582 3.26138 25.9711 2.47563 24.7613ZM5.12065 26.4376C5.35729 26.3382 7.0205 25.0955 7.0205 25.0955V27.5698C7.0205 27.9101 7.07165 28.2442 7.171 28.5692C5.49045 28.6621 4.96633 27.5438 5.12065 26.4376ZM20.8576 30.3761C19.4425 31.2063 17.5494 31.6637 15.5267 31.6637C13.504 31.6637 11.6109 31.2063 10.1958 30.3761C8.87625 29.6017 8.14929 28.6049 8.14929 27.5698V22.385C8.54466 22.8061 9.0391 23.1942 9.62613 23.5387C11.2111 24.4688 13.3068 24.9811 15.5267 24.9811C17.7467 24.9811 19.8423 24.4688 21.4276 23.5387C22.0144 23.1945 22.5088 22.8064 22.9042 22.385V27.5698C22.9042 28.6049 22.1775 29.6017 20.8576 30.3761ZM37.3765 22.8167C36.9591 23.1706 36.7193 23.6849 36.7986 24.2205C36.8718 24.7142 36.7325 25.2179 36.4165 25.6024C36.0975 25.9902 35.6269 26.2235 35.1254 26.2421C34.5631 26.2633 34.0707 26.5983 33.84 27.1168C33.5575 27.7523 32.9266 28.1628 32.2335 28.1628C31.8584 28.1628 31.5006 28.046 31.199 27.8249C30.6805 27.445 29.9835 27.445 29.4647 27.8249C29.1628 28.046 28.8051 28.1628 28.4303 28.1628C28.0552 28.1628 27.6974 28.046 27.3958 27.8249C26.877 27.445 26.1927 27.4624 25.6615 27.8249C24.9372 28.3191 24.1979 28.1233 23.9989 28.0469C24.0212 27.8894 24.033 22.0358 24.033 22.0358C24.4774 21.8878 24.8993 21.6787 25.292 21.4112C27.1645 20.1342 29.6314 20.1363 31.5762 21.4162C32.5395 22.0503 33.4813 22.2599 34.3059 22.2599C36.4688 22.2599 37.4494 21.2873 37.9674 20.8214C38.0394 21.0134 38.4316 21.922 37.3765 22.8167Z" fill="#28223F" stroke="#28223F" stroke-width="1.2"/>
</svg>
