<svg width="29" height="34" viewBox="0 0 29 34" fill="none" xmlns="http://www.w3.org/2000/svg">
<path d="M15.466 16.6487C15.4673 16.6474 15.468 16.6461 15.4687 16.6447C17.016 13.9626 17.8315 10.9258 17.8315 7.82066V5.60004C17.8315 5.4048 17.6727 5.24609 17.4766 5.24609C17.3789 5.24609 17.2905 5.20625 17.226 5.1425C17.1622 5.07809 17.1224 4.98977 17.1224 4.89215V1.5652C17.1795 0.691289 17.9073 0 18.7966 0H24.5274C25.4546 0 26.2063 0.751055 26.2063 1.67676V4.89215C26.2063 5.08738 26.0475 5.24609 25.8514 5.24609C25.7537 5.24609 25.6653 5.28594 25.6008 5.34969C25.537 5.4141 25.4971 5.50242 25.4971 5.60004V7.82066C25.4971 10.9232 26.3113 13.9573 27.856 16.6381C27.8587 16.6434 27.862 16.6494 27.8653 16.6547C28.1631 17.176 28.3333 17.7789 28.3333 18.4218V32.3226C28.3333 32.4308 28.3233 32.5357 28.3033 32.638C28.1937 33.2144 27.7882 33.6866 27.2505 33.8904C27.0651 33.9615 26.8643 34 26.6543 34H16.6737C16.4643 34 16.2636 33.9615 16.0788 33.8911C15.5411 33.6872 15.135 33.2151 15.0253 32.638C15.012 32.5709 15.0034 32.5025 14.9994 32.4328C14.9968 32.3963 14.9954 32.3598 14.9954 32.3226V18.4218C14.9954 17.777 15.1669 17.1713 15.466 16.6487ZM24.2123 2.34613C24.2123 2.1509 24.0535 1.99219 23.8574 1.99219H19.4706C19.2752 1.99219 19.1163 2.1509 19.1163 2.34613V2.89996C19.1163 3.06863 19.2347 3.20941 19.3928 3.24461C19.4174 3.25059 19.444 3.25391 19.4706 3.25391H23.8574C23.8833 3.25391 23.9086 3.25125 23.9325 3.24527C24.0927 3.21141 24.2123 3.0693 24.2123 2.89996V2.34613ZM26.3386 18.0871C26.3386 18.0233 26.3213 17.9609 26.2887 17.9064C25.7038 16.9283 25.2073 15.9063 24.8032 14.8518C23.9471 12.6179 23.5031 10.2379 23.5031 7.82066V5.60004C23.5031 5.4048 23.3443 5.24609 23.1482 5.24609H20.1798C19.9837 5.24609 19.8249 5.4048 19.8249 5.60004V7.82066C19.8249 10.2379 19.3809 12.6179 18.5248 14.8518C18.1207 15.9063 17.6242 16.9283 17.0393 17.9064C17.0067 17.9609 16.9894 18.0233 16.9894 18.0871V19.9119C18.2496 19.1243 19.6933 18.6648 21.1874 18.5845C21.3456 18.5752 21.5045 18.5712 21.664 18.5712C21.8235 18.5712 21.9824 18.5752 22.1406 18.5838C23.4313 18.6535 24.6842 19.0061 25.8142 19.6084C26.0521 19.7353 26.3386 19.5673 26.3386 19.2983V18.0871ZM16.9894 31.6539C16.9894 31.8491 17.1483 32.0078 17.3437 32.0078H25.9843C26.1804 32.0078 26.3393 31.8491 26.3393 31.6539V29.6836C26.3393 29.4884 26.1804 29.3296 25.9843 29.3296H17.3437C17.1483 29.3296 16.9894 29.4884 16.9894 29.6836V31.6539ZM16.9894 26.9829C16.9894 27.1787 17.1483 27.3375 17.3437 27.3375H25.9843C26.1804 27.3375 26.3393 27.1787 26.3393 26.9829V22.5708C26.3393 22.4692 26.2947 22.3716 26.2176 22.3045L26.1551 22.2494C26.0029 22.1166 25.8454 21.9911 25.6832 21.8729C24.5845 21.0714 23.2678 20.6158 21.9026 20.5687C21.8235 20.5654 21.7438 20.564 21.664 20.564C21.5849 20.564 21.5058 20.5654 21.4274 20.5687C20.0615 20.6152 18.7448 21.0714 17.6448 21.8729C17.4826 21.9911 17.3257 22.1166 17.1735 22.2494L17.1104 22.3045C17.0333 22.3716 16.9894 22.4692 16.9894 22.5708V26.9829Z" fill="#28223F"/>
<path d="M0.470644 17.3513C0.471973 17.3526 0.472638 17.3539 0.473303 17.3553C2.02064 20.0374 2.83619 23.0742 2.83619 26.1793V28.4C2.83619 28.5952 2.67733 28.7539 2.48125 28.7539C2.38355 28.7539 2.29515 28.7938 2.23068 28.8575C2.16687 28.9219 2.12699 29.0102 2.12699 29.1079V32.4348C2.18415 33.3087 2.91196 34 3.80128 34H9.53202C10.4592 34 11.211 33.2489 11.211 32.3232V29.1079C11.211 28.9126 11.0521 28.7539 10.856 28.7539C10.7583 28.7539 10.6699 28.7141 10.6055 28.6503C10.5416 28.5859 10.5018 28.4976 10.5018 28.4V26.1793C10.5018 23.0768 11.316 20.0427 12.8607 17.3619C12.8633 17.3566 12.8666 17.3506 12.87 17.3453C13.1677 16.824 13.3379 16.2211 13.3379 15.5782V1.67742C13.3379 1.56918 13.3279 1.46426 13.308 1.36199C13.1983 0.785586 12.7929 0.313437 12.2552 0.10957C12.0697 0.0385156 11.869 0 11.6589 0H1.67834C1.46897 0 1.26824 0.0385156 1.08346 0.108906C0.545751 0.312773 0.139643 0.784922 0.029973 1.36199C0.0166798 1.42906 0.00803757 1.49746 0.00405025 1.56719C0.00139141 1.60371 6.19888e-05 1.64023 6.19888e-05 1.67742V15.5782C6.19888e-05 16.223 0.171545 16.8287 0.470644 17.3513ZM9.21697 31.6539C9.21697 31.8491 9.05811 32.0078 8.86204 32.0078H4.47525C4.27984 32.0078 4.12098 31.8491 4.12098 31.6539V31.1C4.12098 30.9314 4.23929 30.7906 4.39748 30.7554C4.42208 30.7494 4.44866 30.7461 4.47525 30.7461H8.86204C8.88796 30.7461 8.91322 30.7488 8.93714 30.7547C9.09733 30.7886 9.21697 30.9307 9.21697 31.1V31.6539ZM11.3432 15.9129C11.3432 15.9767 11.326 16.0391 11.2934 16.0936C10.7085 17.0717 10.212 18.0937 9.80786 19.1482C8.95177 21.3821 8.50777 23.7621 8.50777 26.1793V28.4C8.50777 28.5952 8.34892 28.7539 8.15284 28.7539H5.18445C4.98837 28.7539 4.82952 28.5952 4.82952 28.4V26.1793C4.82952 23.7621 4.38552 21.3821 3.52943 19.1482C3.12532 18.0937 2.62881 17.0717 2.04391 16.0936C2.01134 16.0391 1.99406 15.9767 1.99406 15.9129V14.0881C3.25426 14.8757 4.69791 15.3352 6.19208 15.4155C6.35027 15.4248 6.50912 15.4288 6.66864 15.4288C6.82816 15.4288 6.98702 15.4248 7.14521 15.4162C8.43599 15.3465 9.68888 14.9939 10.8188 14.3916C11.0568 14.2647 11.3432 14.4327 11.3432 14.7017V15.9129ZM1.99406 2.34613C1.99406 2.1509 2.15291 1.99219 2.34832 1.99219H10.989C11.185 1.99219 11.3439 2.1509 11.3439 2.34613V4.31641C11.3439 4.51164 11.185 4.67035 10.989 4.67035H2.34832C2.15291 4.67035 1.99406 4.51164 1.99406 4.31641V2.34613ZM1.99406 7.01715C1.99406 6.82125 2.15291 6.66254 2.34832 6.66254H10.989C11.185 6.66254 11.3439 6.82125 11.3439 7.01715V11.4292C11.3439 11.5308 11.2994 11.6284 11.2223 11.6955L11.1598 11.7506C11.0076 11.8834 10.85 12.0089 10.6879 12.1271C9.58918 12.9286 8.27248 13.3842 6.90726 13.4313C6.82816 13.4346 6.7484 13.436 6.66864 13.436C6.58955 13.436 6.51045 13.4346 6.43202 13.4313C5.06614 13.3848 3.74944 12.9286 2.64942 12.1271C2.48724 12.0089 2.33038 11.8834 2.17817 11.7506L2.11503 11.6955C2.03792 11.6284 1.99406 11.5308 1.99406 11.4292V7.01715Z" fill="#28223F"/>
</svg>
