<svg width="34" height="35" viewBox="0 0 34 35" fill="none" xmlns="http://www.w3.org/2000/svg">
<path d="M24.7485 6.89893C25.2961 6.89893 25.7399 6.45505 25.7399 5.9075C25.7399 5.35995 25.2961 4.91608 24.7485 4.91608C24.201 4.91608 23.7571 5.35995 23.7571 5.9075C23.7571 6.45505 24.201 6.89893 24.7485 6.89893Z" fill="#28223F"/>
<path d="M32.872 4.05921L32.6852 3.24128L30.8723 3.19469L30.8257 1.38178L30.0077 1.19495C28.0235 0.741751 25.2242 0.882764 22.5194 1.57204C20.5048 2.08548 17.7325 3.11263 15.2029 5.1479C12.7227 5.21184 9.04195 6.87797 7.07541 8.84458C6.54643 9.37356 6.28803 10.0499 6.32808 10.8006C6.38024 11.7787 6.95025 12.8804 8.02218 14.0751C8.23269 14.3098 8.44146 14.524 8.63341 14.712C7.98141 16.7388 7.74973 18.6649 7.8182 20.3315C4.89867 20.1194 1.66981 21.1771 0.527663 22.473C0.0256087 23.0425 -0.127312 23.7185 0.108249 24.3274C0.552126 25.4748 1.77264 25.6938 2.9531 25.9057C4.16403 26.1231 5.53669 26.3694 6.61703 27.4498C7.69738 28.5302 7.94374 29.9027 8.16112 31.1137C8.37293 32.2941 8.59205 33.5147 9.73931 33.9586C9.92685 34.0311 10.1208 34.0668 10.3161 34.0668C10.7547 34.0668 11.1997 33.8866 11.5938 33.5392C12.8897 32.3969 13.9475 29.1684 13.7353 26.2486C13.9215 26.2563 14.1109 26.2602 14.3034 26.2602C15.8336 26.2601 17.5547 26.0124 19.3552 25.4332C19.5504 25.6338 19.776 25.8544 20.0238 26.0767C21.2184 27.1487 22.3202 27.7187 23.2983 27.7708C23.3488 27.7736 23.3989 27.7748 23.4487 27.7748C24.1392 27.7748 24.761 27.5168 25.2543 27.0234C27.2405 25.0373 28.9203 21.3029 28.9526 18.8226C30.966 16.3041 31.9842 13.551 32.4948 11.5474C33.1841 8.84277 33.3251 6.04342 32.872 4.05921ZM8.48579 10.6858C8.47842 10.5486 8.50928 10.4666 8.60331 10.3726C9.50977 9.46623 10.9297 8.60566 12.3408 8.02808C11.13 9.49956 10.1996 11.0068 9.50628 12.4919C8.95666 11.8519 8.51155 11.1685 8.48579 10.6858ZM23.7264 25.4957C23.6325 25.5896 23.5503 25.6201 23.4139 25.6133C22.925 25.5877 22.2248 25.1256 21.5733 24.5611C23.0816 23.8573 24.6126 22.9091 26.1059 21.6708C25.5285 23.1105 24.6516 24.5705 23.7264 25.4957ZM30.401 11.0138C30.2012 11.7977 29.9148 12.7097 29.5063 13.6742C27.1942 13.3893 25.042 12.3432 23.3829 10.684C22.207 9.5081 21.3502 8.11687 20.8362 6.5489L18.783 7.222C19.4036 9.11515 20.4371 10.794 21.855 12.2119C23.6743 14.0312 25.9854 15.2388 28.486 15.7016C27.8872 16.7133 27.1386 17.7259 26.2028 18.6616C24.1064 20.7579 21.6415 22.3427 19.0746 23.2444C16.8528 24.025 14.5642 24.2835 12.6302 23.9722L11.016 23.7125L11.4099 25.2992C11.7067 26.4946 11.6537 28.042 11.2646 29.5445C11.0133 30.5148 10.6976 31.178 10.4524 31.5612C10.3909 31.3065 10.3346 30.9926 10.2878 30.7319C10.0417 29.3602 9.70443 27.4814 8.14488 25.9218C6.58532 24.3623 4.70653 24.025 3.33478 23.7789C3.07411 23.7321 2.76025 23.6757 2.50553 23.6143C2.88864 23.3691 3.5519 23.0533 4.52216 22.8021C6.02464 22.4129 7.57203 22.3599 8.7675 22.6568L10.3543 23.0507L10.0946 21.4365C9.78338 19.5026 10.0419 17.2139 10.8223 14.9921C11.724 12.4252 13.3088 9.96032 15.4052 7.8639C17.8999 5.36916 20.9411 4.20391 23.0531 3.66555C25.3475 3.08079 27.3516 3.01213 28.71 3.16621L28.7649 5.30159L30.9003 5.35647C31.0544 6.71541 30.9857 8.71949 30.401 11.0138Z" fill="#28223F"/>
<path fill-rule="evenodd" clip-rule="evenodd" d="M23.4764 17.5553C23.8615 17.9404 23.8615 18.5648 23.4764 18.9499C21.8048 20.6215 19.7378 21.5059 17.8739 21.9425C16.0151 22.3779 14.2945 22.3834 13.2358 22.2422C12.6959 22.1703 12.3167 21.6743 12.3886 21.1344C12.4606 20.5946 12.9566 20.2153 13.4965 20.2873C14.3203 20.3971 15.8002 20.4026 17.4241 20.0222C19.0431 19.643 20.7413 18.8958 22.0818 17.5553C22.4669 17.1702 23.0913 17.1702 23.4764 17.5553Z" fill="#28223F"/>
</svg>
