<svg width="34" height="34" viewBox="0 0 34 34" fill="none" xmlns="http://www.w3.org/2000/svg">
<path d="M33 15.625C33 14.5911 32.1589 13.75 31.125 13.75H30.1628C30.5842 13.1113 30.8904 12.3545 31.0425 11.5432C31.3184 10.0693 31.063 8.63525 30.3413 7.60938C29.8396 6.89624 29.1614 6.45264 28.3799 6.3269C27.8093 6.23486 27.229 6.32349 26.6802 6.573C26.8635 6.24097 27.1577 5.97827 27.522 5.83447C27.843 5.70776 28.0005 5.34473 27.8738 5.02368C27.7471 4.70264 27.384 4.54492 27.0627 4.67188C26.144 5.03467 25.4783 5.82886 25.281 6.79663C24.6152 6.38037 23.8831 6.21167 23.1667 6.3269C22.4517 6.44214 21.8235 6.82397 21.3374 7.43433C21.1606 7.021 20.9236 6.62988 20.6292 6.2749C20.3098 5.88989 19.937 5.56372 19.5259 5.30273C19.8809 4.96313 20.1025 4.48535 20.1025 3.95654C20.1025 3.09692 19.5176 2.37134 18.7249 2.15698C18.4448 1.47241 17.7722 1 17 1C16.2278 1 15.5552 1.47241 15.2749 2.15698C14.4822 2.37134 13.8972 3.09692 13.8972 3.95654C13.8972 4.48584 14.1194 4.96387 14.4749 5.30347C14.0645 5.56445 13.6919 5.89014 13.3733 6.27466C12.655 7.14062 12.2773 8.21826 12.2876 9.32227C11.8416 9.01782 11.3501 8.77734 10.8225 8.60962C9.89282 8.31396 9.12036 7.7002 8.64722 6.88086C8.22949 6.15747 7.55518 5.64014 6.74854 5.42383C6.10229 5.25073 5.43335 5.28784 4.8208 5.52393C4.47754 5.15894 4.28882 4.68506 4.28882 4.18164C4.28882 3.83643 4.00903 3.55664 3.66382 3.55664C3.31885 3.55664 3.03882 3.83643 3.03882 4.18164C3.03882 4.92725 3.2915 5.63379 3.75586 6.20435C3.35596 6.59253 3.06689 7.08252 2.9187 7.63477C2.70264 8.44165 2.81348 9.28442 3.2312 10.0078C3.70801 10.8337 3.85571 11.7991 3.64722 12.7261C3.57202 13.061 3.52808 13.4041 3.51538 13.7498H2.875C1.84106 13.7498 1 14.5908 1 15.6248V19.1248C1 19.6047 1.1814 20.0427 1.479 20.3748C1.1814 20.707 1 21.145 1 21.625V25.125C1 25.605 1.1814 26.043 1.479 26.375C1.1814 26.707 1 27.145 1 27.625V31.125C1 32.1589 1.84106 33 2.875 33H31.125C32.1589 33 33 32.1589 33 31.125V27.625C33 27.145 32.8186 26.707 32.521 26.375C32.8186 26.043 33 25.605 33 25.125V21.625C33 21.145 32.8186 20.707 32.521 20.375C32.8186 20.043 33 19.605 33 19.125V15.625ZM25.2002 8.61646C25.1724 8.95093 25.0281 9.26782 24.7832 9.51245C24.5383 9.75732 24.2214 9.90161 23.8872 9.92944C23.915 9.59521 24.0593 9.27808 24.304 9.03345C24.5488 8.78857 24.866 8.64429 25.2002 8.61646ZM23.3655 7.56104C23.6204 7.52002 23.884 7.54614 24.1453 7.63232C23.8811 7.76147 23.6355 7.93433 23.4202 8.14966C22.7639 8.80591 22.4944 9.73901 22.699 10.6458C22.752 10.8811 22.9358 11.0647 23.1711 11.1179C23.3706 11.1628 23.5715 11.1851 23.7705 11.1851C24.4751 11.1851 25.1555 10.9082 25.6672 10.3965C26.2412 9.82251 26.5195 9.03638 26.4434 8.24121C26.9832 7.71484 27.6052 7.46826 28.1812 7.56104C28.7383 7.65063 29.1074 8.02783 29.3188 8.32861C29.8401 9.06958 30.0251 10.1853 29.8137 11.3132C29.6289 12.3013 29.1692 13.1765 28.5408 13.75H23.0061C22.3774 13.1765 21.918 12.3013 21.7329 11.3132C21.5217 10.1853 21.7068 9.06958 22.228 8.32861C22.4392 8.02783 22.8083 7.65063 23.3655 7.56104ZM21.0613 13.1956C21.1592 13.3887 21.2673 13.5735 21.3838 13.75H20.957L21.0613 13.1956ZM15.7612 4.57031C15.4226 4.57031 15.1472 4.29492 15.1472 3.95654C15.1472 3.62012 15.4194 3.34595 15.7551 3.34253C15.7615 3.34277 15.7656 3.34277 15.7703 3.34277C16.0867 3.34277 16.3538 3.10571 16.3909 2.79077C16.427 2.48242 16.689 2.25 17 2.25C17.311 2.25 17.573 2.48242 17.6091 2.79077C17.6462 3.10596 17.9133 3.34277 18.23 3.34277H18.2363H18.2437C18.5798 3.34521 18.8528 3.61963 18.8528 3.95654C18.8528 4.29492 18.5774 4.57031 18.239 4.57031H15.7612ZM17.0012 5.82031C18.0352 5.82031 19.0068 6.27686 19.667 7.07275C20.1177 7.61621 20.3857 8.27295 20.4497 8.9585H19.3611C19.0161 8.9585 18.7361 9.23828 18.7361 9.5835C18.7361 9.92847 19.0161 10.2085 19.3611 10.2085H20.3516L19.6851 13.75H14.3171L13.5974 9.92407C13.5208 9.51685 13.5193 9.10596 13.5859 8.7085H15.7971C16.1421 8.7085 16.4221 8.42847 16.4221 8.0835C16.4221 7.73828 16.1421 7.4585 15.7971 7.4585H14.0588C14.1418 7.32495 14.2334 7.19556 14.3352 7.07275C14.9954 6.27686 15.967 5.82031 17.0012 5.82031ZM4.31372 9.38281C4.06299 8.94873 3.99634 8.44287 4.12622 7.9585C4.25586 7.47437 4.56641 7.06958 5.00073 6.81885C5.43481 6.56836 5.94067 6.50146 6.42505 6.63135C6.90918 6.76123 7.31396 7.07178 7.56445 7.50586C8.19385 8.5957 9.21631 9.41089 10.4438 9.80103C11.3044 10.0747 12.0427 10.5952 12.5859 11.3088L13.0452 13.75H4.7666C4.77856 13.4966 4.81177 13.2458 4.86694 13.0007C5.14429 11.7664 4.948 10.4814 4.31372 9.38281ZM2.25 15.625C2.25 15.2803 2.53027 15 2.875 15H31.125C31.4697 15 31.75 15.2803 31.75 15.625V19.125C31.75 19.4697 31.4697 19.75 31.125 19.75H2.875C2.53027 19.75 2.25 19.4697 2.25 19.125V15.625ZM31.75 31.125C31.75 31.4697 31.4697 31.75 31.125 31.75H2.875C2.53027 31.75 2.25 31.4697 2.25 31.125V27.625C2.25 27.2803 2.53027 27 2.875 27H14.5081C14.853 27 15.1331 26.7202 15.1331 26.375C15.1331 26.0298 14.853 25.75 14.5081 25.75H2.875C2.53027 25.75 2.25 25.4697 2.25 25.125V21.625C2.25 21.2803 2.53027 21 2.875 21H31.125C31.4697 21 31.75 21.2803 31.75 21.625V25.125C31.75 25.4697 31.4697 25.75 31.125 25.75H19.5081C19.1628 25.75 18.8831 26.0298 18.8831 26.375C18.8831 26.7202 19.1628 27 19.5081 27H31.125C31.4697 27 31.75 27.2803 31.75 27.625V31.125Z" fill="#28223F" stroke="#28223F"/>
<path d="M5 18C5.16431 18 5.32568 17.9331 5.44189 17.8169C5.55811 17.7007 5.625 17.5393 5.625 17.375C5.625 17.2107 5.55811 17.0493 5.44189 16.9331C5.32568 16.8169 5.16431 16.75 5 16.75C4.83569 16.75 4.67432 16.8169 4.55811 16.9331C4.44189 17.0493 4.375 17.2107 4.375 17.375C4.375 17.5393 4.44189 17.7007 4.55811 17.8169C4.67432 17.9331 4.83569 18 5 18Z" fill="#28223F" stroke="#28223F"/>
<path d="M29 18C29.1643 18 29.3257 17.9331 29.4419 17.8169C29.5581 17.7007 29.625 17.5393 29.625 17.375C29.625 17.2107 29.5581 17.0493 29.4419 16.9331C29.3257 16.8169 29.1643 16.75 29 16.75C28.8357 16.75 28.6743 16.8169 28.5581 16.9331C28.4419 17.0493 28.375 17.2107 28.375 17.375C28.375 17.5393 28.4419 17.7007 28.5581 17.8169C28.6743 17.9331 28.8357 18 29 18Z" fill="#28223F" stroke="#28223F"/>
<path d="M5 22.75C4.83569 22.75 4.67432 22.8169 4.55811 22.9331C4.44189 23.0493 4.375 23.2107 4.375 23.375C4.375 23.5393 4.44189 23.7007 4.55811 23.8169C4.67432 23.9331 4.83569 24 5 24C5.16431 24 5.32568 23.9331 5.44189 23.8169C5.55811 23.7007 5.625 23.5393 5.625 23.375C5.625 23.2107 5.55811 23.0493 5.44189 22.9331C5.32568 22.8169 5.16431 22.75 5 22.75Z" fill="#28223F" stroke="#28223F"/>
<path d="M29 24C29.1643 24 29.3257 23.9331 29.4419 23.8169C29.5581 23.7007 29.625 23.5393 29.625 23.375C29.625 23.2107 29.5581 23.0493 29.4419 22.9331C29.3257 22.8169 29.1643 22.75 29 22.75C28.8357 22.75 28.6743 22.8169 28.5581 22.9331C28.4419 23.0493 28.375 23.2107 28.375 23.375C28.375 23.5393 28.4419 23.7007 28.5581 23.8169C28.6743 23.9331 28.8357 24 29 24Z" fill="#28223F" stroke="#28223F"/>
<path d="M5 28.75C4.83569 28.75 4.67432 28.8169 4.55811 28.9331C4.44189 29.0493 4.375 29.2107 4.375 29.375C4.375 29.5393 4.44189 29.7007 4.55811 29.8169C4.67432 29.9331 4.83569 30 5 30C5.16431 30 5.32568 29.9331 5.44189 29.8169C5.55811 29.7007 5.625 29.5393 5.625 29.375C5.625 29.2107 5.55811 29.0493 5.44189 28.9331C5.32568 28.8169 5.16431 28.75 5 28.75Z" fill="#28223F" stroke="#28223F"/>
<path d="M29 28.75C28.8357 28.75 28.6743 28.8169 28.5581 28.9331C28.4419 29.0493 28.375 29.2107 28.375 29.375C28.375 29.5393 28.4419 29.7007 28.5581 29.8169C28.6743 29.9331 28.8357 30 29 30C29.1643 30 29.3257 29.9331 29.4419 29.8169C29.5581 29.7007 29.625 29.5393 29.625 29.375C29.625 29.2107 29.5581 29.0493 29.4419 28.9331C29.3257 28.8169 29.1643 28.75 29 28.75Z" fill="#28223F" stroke="#28223F"/>
<path d="M15.1719 11.3835C15.1719 11.7285 15.4517 12.0085 15.7969 12.0085H17.0447C17.3896 12.0085 17.6697 11.7285 17.6697 11.3835C17.6697 11.0383 17.3896 10.7585 17.0447 10.7585H15.7969C15.4517 10.7585 15.1719 11.0383 15.1719 11.3835Z" fill="#28223F" stroke="#28223F"/>
<path d="M17 25.75C16.8357 25.75 16.6743 25.8169 16.5581 25.9331C16.4419 26.0493 16.375 26.2107 16.375 26.375C16.375 26.5393 16.4419 26.7007 16.5581 26.8169C16.6743 26.9331 16.8357 27 17 27C17.1643 27 17.3257 26.9331 17.4419 26.8169C17.5581 26.7007 17.625 26.5393 17.625 26.375C17.625 26.2107 17.5581 26.0493 17.4419 25.9331C17.3257 25.8169 17.1643 25.75 17 25.75Z" fill="#28223F" stroke="#28223F"/>
</svg>
