<svg width="34" height="34" viewBox="0 0 34 34" fill="none" xmlns="http://www.w3.org/2000/svg">
<path d="M4.85693 20.886C4.85693 22.7603 6.49117 24.2857 8.49979 24.2857C10.5084 24.2857 12.1426 22.7603 12.1426 20.886C12.1426 19.0111 10.5084 17.4857 8.49979 17.4857C6.49117 17.4857 4.85693 19.0111 4.85693 20.886ZM11.1941 20.886C11.1941 22.1888 9.98561 23.2489 8.49979 23.2489C7.01453 23.2489 5.80545 22.1888 5.80545 20.886C5.80545 19.5826 7.01453 18.5226 8.49979 18.5226C9.98561 18.5226 11.1941 19.5826 11.1941 20.886Z" fill="#28223F"/>
<path fill-rule="evenodd" clip-rule="evenodd" d="M4.37134 20.886C4.37134 18.9585 6.28279 17.4857 8.49991 17.4857C10.717 17.4857 12.6285 18.9585 12.6285 20.886C12.6285 22.813 10.717 24.2857 8.49991 24.2857C6.28284 24.2857 4.37134 22.813 4.37134 20.886ZM8.49991 18.2377C6.60264 18.2377 5.1666 19.4784 5.1666 20.886C5.1666 22.293 6.6026 23.5337 8.49991 23.5337C10.3972 23.5337 11.8332 22.293 11.8332 20.886C11.8332 19.4784 10.3972 18.2377 8.49991 18.2377ZM8.49991 19.1599C7.11369 19.1599 6.13805 20.0063 6.13805 20.886C6.13805 21.7651 7.11362 22.6115 8.49991 22.6115C9.88671 22.6115 10.8618 21.7652 10.8618 20.886C10.8618 20.0062 9.88664 19.1599 8.49991 19.1599ZM5.34279 20.886C5.34279 19.4472 6.84377 18.4079 8.49991 18.4079C10.1567 18.4079 11.657 19.4472 11.657 20.886C11.657 22.3243 10.1566 23.3635 8.49991 23.3635C6.84384 23.3635 5.34279 22.3243 5.34279 20.886Z" fill="#28223F"/>
<path d="M32.6684 29.1043H30.634V22.4925C30.634 20.5696 29.0663 19.0056 27.1402 19.0056H16.6918C14.7657 19.0056 13.198 20.5696 13.198 22.4925V29.1043H11.0143C10.6689 29.1043 10.3695 29.3025 10.2239 29.5907H1.9792V13.6665L2.90523 13.2627C3.94329 12.8099 5.10519 12.7615 6.17685 13.1267L6.69028 13.3019C7.9337 13.7255 9.30471 13.7286 10.55 13.3106L11.3285 13.0491C12.2869 12.7273 13.3387 12.7373 14.2909 13.0764L15.2605 13.4217C15.2611 13.4503 15.2623 13.4789 15.2623 13.5081V17.3316H16.7559V13.5081C16.7559 12.0248 16.1772 10.6304 15.1267 9.58199L13.1184 7.57764C12.8016 7.26149 12.6267 6.841 12.6267 6.39379V4.81243H13.3088C14.1483 4.81243 14.8317 4.13044 14.8317 3.29255V2.00559C14.8317 1.16708 14.1483 0.485718 13.3088 0.485718H4.0161C3.17657 0.485718 2.49325 1.16708 2.49325 2.00559V3.29255C2.49325 4.13044 3.17657 4.81243 4.0161 4.81243H4.77349V6.28448C4.77349 6.78882 4.56438 7.27889 4.20094 7.6292L2.20511 9.54721C1.11229 10.5969 0.485596 12.0677 0.485596 13.582V31.1466C0.485596 32.4522 1.54979 33.5143 2.85732 33.5143H13.6617H16.7565H29.942C31.9117 33.5143 33.5142 31.9149 33.5142 29.9484C33.5142 29.4832 33.1352 29.1043 32.6684 29.1043ZM20.6804 20.4963H26.0872V23.8783C26.0872 24.0957 25.9099 24.2721 25.6927 24.2721H25.3342C25.1164 24.2721 24.9396 24.095 24.9396 23.8783C24.9396 23.0789 24.288 22.4286 23.4871 22.4286H23.2811C22.4802 22.4286 21.8286 23.0789 21.8286 23.8783V25.9062C21.8286 26.1236 21.6512 26.3 21.434 26.3H21.0756C20.8577 26.3 20.681 26.1236 20.681 25.9062V20.4963H20.6804ZM14.6916 22.4925C14.6916 21.3919 15.589 20.4963 16.6918 20.4963H19.6224V25.9062C19.6224 26.7056 20.274 27.3559 21.0749 27.3559H21.4334C22.2343 27.3559 22.8859 26.7056 22.8859 25.9062V23.8783C22.8859 23.6609 23.0633 23.4845 23.2805 23.4845H23.4865C23.7043 23.4845 23.881 23.6615 23.881 23.8783C23.881 24.6776 24.5326 25.3279 25.3336 25.3279H25.692C26.493 25.3279 27.1446 24.6776 27.1446 23.8783V20.4963C28.2449 20.4988 29.1398 21.3938 29.1398 22.4925V29.1043H14.6916V22.4925ZM3.98685 3.29255V2.00559C3.98685 1.98944 3.99992 1.9764 4.0161 1.9764H13.3094C13.3256 1.9764 13.3387 1.98944 13.3387 2.00559V3.29255C13.3387 3.3087 13.3256 3.32174 13.3094 3.32174H4.0161C3.99992 3.32174 3.98685 3.3087 3.98685 3.29255ZM3.24067 10.6205L5.23712 8.70249C5.89182 8.07267 6.26709 7.19193 6.26709 6.28448V4.81243H11.1337V6.39317C11.1337 7.23851 11.4636 8.03354 12.0629 8.63106L14.0712 10.6354C14.3842 10.9478 14.6387 11.3025 14.8317 11.6857L14.7937 11.6721C13.5273 11.2205 12.1276 11.2075 10.8531 11.6354L10.0745 11.8969C9.13854 12.2112 8.10796 12.2087 7.17321 11.8901L6.65978 11.7149C5.24895 11.2348 3.72174 11.2932 2.35198 11.8776V11.877C2.56482 11.4099 2.86541 10.9814 3.24067 10.6205ZM2.85732 32.0236C2.37314 32.0236 1.9792 31.6304 1.9792 31.1466V30.6466H10.1909C10.2868 31.1516 10.4909 31.6193 10.7784 32.0236H2.85732ZM29.942 32.0236H16.7565H13.6617C12.7487 32.0236 11.9739 31.4217 11.7144 30.595H13.198H15.2629H16.7565H30.634H31.9179C31.6447 31.4236 30.8624 32.0236 29.942 32.0236Z" fill="#28223F"/>
<path fill-rule="evenodd" clip-rule="evenodd" d="M2.03282 1.81762C2.03282 0.814093 2.85007 0 3.85345 0H13.2627C14.266 0 15.0833 0.814093 15.0833 1.81762V3.12071C15.0833 4.12353 14.2661 4.93833 13.2627 4.93833H12.8507V6.26083C12.8507 6.63941 12.9982 6.99427 13.2667 7.26226L15.3002 9.29174C16.4162 10.4056 17.0317 11.8884 17.0317 13.4643V17.6145H14.962V13.5741L14.1635 13.2897C13.2582 12.9673 12.2574 12.9579 11.3463 13.2637L10.558 13.5285C9.23914 13.9712 7.78816 13.9679 6.47128 13.5193L5.95139 13.3419C5.95136 13.3419 5.95142 13.342 5.95139 13.3419C4.93218 12.9946 3.82746 13.0406 2.84008 13.4713L2.06971 13.8072V29.4698H9.98296C10.1957 29.1723 10.5446 28.9774 10.9393 28.9774H12.8718V22.5614C12.8718 20.4599 14.5844 18.752 16.6881 18.752H27.2674C29.3711 18.752 31.0837 20.4599 31.0837 22.5614V28.9774H32.865C33.4911 28.9774 34 29.4854 34 30.1108C34 32.2563 32.2521 34 30.1043 34H2.68014C1.20277 34 0 32.8003 0 31.3239V13.5391C0 11.93 0.665475 10.3682 1.82665 9.25283C1.82667 9.25282 1.82663 9.25285 1.82665 9.25283L3.8472 7.31106C3.84723 7.31104 3.84718 7.31109 3.8472 7.31106C4.1609 7.00866 4.34164 6.58475 4.34164 6.15014V4.93833H3.85345C2.85 4.93833 2.03282 4.12353 2.03282 3.12071V1.81762ZM3.85345 0.557377C3.15673 0.557377 2.5902 1.1231 2.5902 1.81762V3.12071C2.5902 3.81467 3.1568 4.38095 3.85345 4.38095H4.89902V6.15014C4.89902 6.73684 4.65626 7.30538 4.23401 7.71237L2.21286 9.65472C1.16103 10.665 0.557377 12.0818 0.557377 13.5391V31.3239C0.557377 32.4915 1.50967 33.4426 2.68014 33.4426H30.1043C31.9453 33.4426 33.4426 31.9475 33.4426 30.1108C33.4426 29.794 33.184 29.5348 32.865 29.5348H30.5264V22.5614C30.5264 20.7688 29.0644 19.3094 27.2674 19.3094H16.6881C14.8912 19.3094 13.4292 20.7688 13.4292 22.5614V29.5348H10.9393C10.6988 29.5348 10.4897 29.6726 10.3878 29.8742L10.3105 30.0272H1.51233V13.4421L2.61724 12.9604C3.73197 12.4742 4.98024 12.4221 6.13119 12.8144L6.65102 12.9917C7.85216 13.4009 9.1776 13.4039 10.3805 13.0001C10.3805 13.0001 10.3805 13.0001 10.3805 13.0001L11.1688 12.7354C12.1985 12.3897 13.3276 12.4004 14.3505 12.7647L15.5132 13.1788L15.5174 13.3708C15.5175 13.3765 15.5177 13.3837 15.518 13.3919C15.5186 13.413 15.5193 13.4404 15.5193 13.4643V17.0571H16.4743V13.4643C16.4743 12.0366 15.9178 10.6956 14.9064 9.68625L12.873 7.65677C12.5 7.28454 12.2933 6.78787 12.2933 6.26083V4.38095H13.2627C13.9593 4.38095 14.5259 3.81467 14.5259 3.12071V1.81762C14.5259 1.1231 13.9594 0.557377 13.2627 0.557377H3.85345ZM4.10253 2.06675V2.87158H13.0142V2.06675H4.10253ZM3.54515 1.81762C3.54515 1.64684 3.68367 1.50937 3.85345 1.50937H13.2633C13.4331 1.50937 13.5716 1.64682 13.5716 1.81762V3.12071C13.5716 3.2915 13.4331 3.42895 13.2633 3.42895H3.85345C3.68367 3.42895 3.54515 3.29149 3.54515 3.12071V1.81762ZM5.85397 4.38095H11.339V6.2602C11.339 7.04207 11.6435 7.77606 12.1979 8.32878L14.2314 10.3584C14.5697 10.6959 14.8449 11.0794 15.0535 11.4938L15.3678 12.118L14.6726 11.8678C14.6725 11.8677 14.6727 11.8678 14.6726 11.8678C13.4492 11.4316 12.0961 11.419 10.8649 11.8323C10.8649 11.8323 10.8649 11.8323 10.8649 11.8323L10.0766 12.0971C9.07084 12.4348 7.96454 12.4321 6.96022 12.0898L6.44049 11.9125C5.0771 11.4485 3.60167 11.5049 2.27784 12.0698L1.88978 12.2353V11.7523L1.91487 11.6972C2.14469 11.1929 2.46936 10.7298 2.87513 10.3396L4.89657 8.39762C5.50496 7.81236 5.85397 6.99305 5.85397 6.15014V4.38095ZM14.1789 11.1424C14.075 11.0063 13.9612 10.8761 13.8377 10.7529L11.8044 8.7235C11.1451 8.06621 10.7816 7.1902 10.7816 6.2602V4.93833H6.41135V6.15014C6.41135 7.14489 6.00042 8.10915 5.28299 8.79931L3.26148 10.7414C3.08411 10.912 2.92434 11.0986 2.78375 11.298C4.03558 10.9334 5.37105 10.9598 6.62006 11.3848L7.14006 11.5622C7.14008 11.5622 7.14003 11.5622 7.14006 11.5622C8.02865 11.8651 9.00943 11.8675 9.89913 11.5687L10.6874 11.304C11.8123 10.9263 13.0286 10.8729 14.1789 11.1424ZM26.9932 20.2608L27.2725 20.2614C28.5398 20.2643 29.5708 21.2947 29.5708 22.5614V29.5348H14.3841V22.5614C14.3841 21.2926 15.4181 20.2614 16.6881 20.2614H19.9341V26.0179C19.9341 26.6728 20.4686 27.207 21.1261 27.207H21.4891C22.1467 27.207 22.6811 26.6728 22.6811 26.0179V23.9645C22.6811 23.5897 22.9863 23.2871 23.3593 23.2871H23.5679C23.9422 23.2871 24.2461 23.5909 24.2461 23.9645C24.2461 24.6195 24.7806 25.1537 25.4382 25.1537H25.8011C26.4587 25.1537 26.9932 24.6195 26.9932 23.9645V20.2608ZM16.6881 20.8188C15.7249 20.8188 14.9415 21.6014 14.9415 22.5614V28.9774H29.0134V22.5614C29.0134 21.6978 28.3791 20.9774 27.5505 20.8417V23.9645C27.5505 24.9283 26.7655 25.711 25.8011 25.711H25.4382C24.4738 25.711 23.6887 24.9283 23.6887 23.9645C23.6887 23.8991 23.6348 23.8444 23.5679 23.8444H23.3593C23.2925 23.8444 23.2385 23.8991 23.2385 23.9645V26.0179C23.2385 26.9817 22.4535 27.7644 21.4891 27.7644H21.1261C20.1617 27.7644 19.3767 26.9817 19.3767 26.0179V20.8188H16.6881ZM20.7266 20.5401V20.2614H26.4799V23.9645C26.4799 24.3393 26.1748 24.6419 25.8018 24.6419H25.4388C25.0646 24.6419 24.7606 24.3381 24.7606 23.9645C24.7606 23.3095 24.2261 22.7753 23.5685 22.7753H23.36C22.7024 22.7753 22.1679 23.3095 22.1679 23.9645V26.0179C22.1679 26.3927 21.8628 26.6953 21.4897 26.6953H21.1268C20.7528 26.6953 20.4486 26.3924 20.4486 26.0179V20.5401H20.7266ZM21.0059 20.8188V26.0179C21.0059 26.0835 21.0596 26.1379 21.1268 26.1379H21.4897C21.5565 26.1379 21.6105 26.0833 21.6105 26.0179V23.9645C21.6105 23.0007 22.3956 22.2179 23.36 22.2179H23.5685C24.5329 22.2179 25.318 23.0007 25.318 23.9645C25.318 24.0298 25.3719 24.0845 25.4388 24.0845H25.8018C25.8686 24.0845 25.9226 24.0299 25.9226 23.9645V20.8188H21.0059ZM11.2687 30.4868H32.4903L32.3697 30.8527C32.0565 31.8024 31.1602 32.4906 30.1043 32.4906H13.6199C12.5703 32.4906 11.6805 31.7988 11.3824 30.8489L11.2687 30.4868ZM12.0743 31.0441C12.3842 31.5754 12.9614 31.9333 13.6199 31.9333H30.1043C30.7693 31.9333 31.353 31.5764 31.6726 31.0441H12.0743ZM1.51233 30.539H10.3364L10.3795 30.7657C10.4689 31.2366 10.6592 31.673 10.9276 32.0504L11.2407 32.4906H2.68014C2.03636 32.4906 1.51233 31.9681 1.51233 31.3239V30.539ZM2.06971 31.0963V31.3239C2.06971 31.6595 2.34342 31.9333 2.68014 31.9333H10.203C10.0651 31.6706 9.95662 31.3901 9.88209 31.0963H2.06971Z" fill="#28223F"/>
</svg>
