<svg width="22" height="22" viewBox="0 0 22 22" fill="none" xmlns="http://www.w3.org/2000/svg">
<path fill-rule="evenodd" clip-rule="evenodd" d="M15.7659 5.43603C14.407 4.27701 12.6719 3.65372 10.8861 3.68315C9.10036 3.71257 7.3867 4.39269 6.06677 5.59586C4.74683 6.79903 3.91135 8.44254 3.71712 10.218C3.52288 11.9934 3.98325 13.7787 5.01182 15.2388C5.19593 15.5001 5.23058 15.8385 5.10325 16.1318L4.27131 18.0478L7.21826 17.5226C7.40988 17.4884 7.60739 17.5161 7.78219 17.6017C9.38626 18.3871 11.2218 18.5601 12.9444 18.0883C14.6669 17.6164 16.1581 16.5321 17.138 15.039C18.1179 13.5458 18.5192 11.7463 18.2666 9.97822C18.0139 8.21016 17.1248 6.59506 15.7659 5.43603ZM10.8559 1.85006C13.0881 1.81328 15.2571 2.59239 16.9556 4.04117C18.6542 5.48996 19.7657 7.50883 20.0815 9.7189C20.3972 11.929 19.8956 14.1783 18.6707 16.0448C17.4459 17.9113 15.5819 19.2666 13.4287 19.8565C11.3742 20.4192 9.19118 20.2482 7.25357 19.3785L2.91076 20.1525C2.57826 20.2117 2.24012 20.0833 2.03072 19.8184C1.82132 19.5534 1.77459 19.1947 1.9091 18.8849L3.22357 15.8577C2.14206 14.1193 1.67091 12.0637 1.89466 10.0186C2.13745 7.79931 3.1818 5.74492 4.83172 4.24095C6.48164 2.73699 8.62371 1.88684 10.8559 1.85006Z" fill="white"/>
<path fill-rule="evenodd" clip-rule="evenodd" d="M7.73598 7.27773C7.99384 7.01986 8.34358 6.875 8.70825 6.875C9.07292 6.875 9.42266 7.01986 9.68052 7.27773C9.93839 7.53559 10.0833 7.88533 10.0833 8.25V9.16667C10.0833 9.53134 9.93839 9.88107 9.68052 10.1389C9.5878 10.2317 9.4832 10.3098 9.37029 10.3718C9.55036 10.8892 9.84579 11.3647 10.2405 11.7594C10.6353 12.1541 11.1107 12.4496 11.6281 12.6296C11.6901 12.5167 11.7683 12.4121 11.861 12.3194C12.1188 12.0615 12.4686 11.9167 12.8333 11.9167H13.7499C14.1146 11.9167 14.4643 12.0615 14.7222 12.3194C14.9801 12.5773 15.1249 12.927 15.1249 13.2917C15.1249 13.6563 14.9801 14.0061 14.7222 14.2639C14.4643 14.5218 14.1146 14.6667 13.7499 14.6667H12.8333C11.3746 14.6667 9.97561 14.0872 8.94416 13.0558C7.91271 12.0243 7.33325 10.6254 7.33325 9.16667V8.25C7.33325 7.88533 7.47812 7.53559 7.73598 7.27773Z" fill="white"/>
</svg>
